<?xml version="1.0" encoding="UTF-8"?>
<svg xmlns="http://www.w3.org/2000/svg" version="1.1" xmlns:xlink="http://www.w3.org/1999/xlink" viewBox="0 0 1024 1024">
  <defs>
    <style>
      .cls-1 {
        stroke: red;
      }

      .cls-1, .cls-2, .cls-3 {
        fill: red;
      }

      .cls-1, .cls-3, .cls-4, .cls-5, .cls-6 {
        stroke-miterlimit: 10;
      }

      .cls-7 {
        fill: #00ff24;
      }

      .cls-8 {
        fill: url(#_Безымянный_градиент_19-2);
      }

      .cls-3, .cls-4, .cls-5 {
        stroke: #000;
        stroke-width: 10px;
      }

      .cls-9 {
        font-family: Calibri-BoldItalic, Calibri;
        font-size: 72px;
        font-style: italic;
        font-weight: 700;
      }

      .cls-10, .cls-6 {
        fill: #ffa300;
      }

      .cls-11 {
        fill: url(#_Безымянный_градиент_19-4);
      }

      .cls-12 {
        fill: #00b1ff;
      }

      .cls-4 {
        fill: none;
      }

      .cls-13 {
        fill: url(#_Безымянный_градиент_19-3);
      }

      .cls-5 {
        fill: url(#_Безымянный_градиент_19);
      }

      .cls-14 {
        fill: #05d11d;
      }

      .cls-6 {
        stroke: #ffa300;
      }
    </style>
    <linearGradient id="_Безымянный_градиент_19" data-name="Безымянный градиент 19" x1="459.19" y1="508.88" x2="577.59" y2="508.88" gradientUnits="userSpaceOnUse">
      <stop offset=".11" stop-color="#00a1bf"/>
      <stop offset=".82" stop-color="#fff"/>
    </linearGradient>
    <linearGradient id="_Безымянный_градиент_19-2" data-name="Безымянный градиент 19" x1="156.22" y1="541.97" x2="232.38" y2="541.97" xlink:href="#_Безымянный_градиент_19"/>
    <linearGradient id="_Безымянный_градиент_19-3" data-name="Безымянный градиент 19" x1="249.79" y1="390.52" x2="325.95" y2="390.52" xlink:href="#_Безымянный_градиент_19"/>
    <linearGradient id="_Безымянный_градиент_19-4" data-name="Безымянный градиент 19" x1="338.93" y1="570.05" x2="415.09" y2="570.05" xlink:href="#_Безымянный_градиент_19"/>
  </defs>
  <!-- Generator: Adobe Illustrator 28.7.1, SVG Export Plug-In . SVG Version: 1.2.0 Build 142)  -->
  <g>
    <g id="_Слой_1" data-name="Слой_1">
      <path class="cls-7" d="M802.14,368.53"/>
      <path class="cls-7" d="M826.8,465.48"/>
      <path class="cls-7" d="M821.98,479.93"/>
      <path class="cls-7" d="M851.46,468.59"/>
      <path class="cls-7" d="M965.98,352.94"/>
      <path class="cls-7" d="M805.26,410.77"/>
      <g>
        <circle class="cls-12" cx="310.48" cy="478.98" r="201.16"/>
        <path class="cls-14" d="M246.51,307.02c-33.75,12.25-54.43,31.8-60.38,37.7-6.65,6.59-10.95,12.23-19.56,23.53-12.26,16.08-28.21,39.24-32.31,69.17-3.48,25.43,2.25,53.59,9.64,54.43,5.52.63,8.03-14.46,23.81-41.67,10.82-18.66,22.95-39.57,43.94-53.86,18.59-12.65,36.92-14.95,52.16-17.29,51.24-7.88,85.44,12.87,92.98.57,5.75-9.39-14.12-21.58-11.62-45.35,2.5-23.84,24.85-34.15,20.69-41.95-2.86-5.36-15.03-3.51-59.24,3.69-52.21,8.5-54.7,9.1-60.09,11.06Z"/>
        <path class="cls-7" d="M305.19,301.11"/>
        <path class="cls-14" d="M479.47,494.28c-13.33-9.99-91.55,107.34-150.64,87.65-8.65-2.88-27.42-20.94-64.98-57.06-27.27-26.22-37.33-39.49-53.04-37.67-15.69,1.82-30.19,17.66-34.31,32.85-2.24,8.27-1.06,15.81,1.31,30.87,2.07,13.12,5.33,24.26,7.04,28.86,12.38,33.13,65.54,50.36,73.34,52.7,21.91,6.56,75.16,22.83,129.51-3.72,74.39-36.33,102.37-126.53,91.76-134.48Z"/>
        <path class="cls-14" d="M431.65,366.96c12.65.72,29.5,45.7,15.07,84.15-16.49,43.91-64.4,54.35-68.19,55.11-5.7,3.74-15.4,8.77-27.08,8.08-33.15-1.96-54.18-46.79-48.88-63.72,3.11-9.94,23.33-8.64,44.67-8.36,17.25.23,18.26,2.95,25.21,1.94,34.82-5.03,42.83-78.14,59.19-77.2Z"/>
        <path class="cls-7" d="M55.45,309"/>
        <path class="cls-7" d="M577.59,354.92"/>
        <path class="cls-7" d="M618.41,459.52"/>
        <path class="cls-7" d="M561.72,458.39"/>
        <path class="cls-7" d="M567.11,386.11"/>
        <g>
          <path class="cls-5" d="M577.59,620.94c0,32.7-26.51,59.2-59.2,59.2s-59.2-26.5-59.2-59.2c0-23.5,13.69-43.81,33.54-53.36v-204.29c0-14.17,11.49-25.66,25.66-25.66,7.08,0,13.5,2.87,18.14,7.52,4.64,4.64,7.51,11.05,7.51,18.14v204.29c19.85,9.55,33.55,29.86,33.55,53.36Z"/>
          <circle class="cls-3" cx="518.39" cy="622.86" r="32.74"/>
          <line class="cls-4" x1="518.39" y1="590.12" x2="518.39" y2="376.75"/>
        </g>
        <path class="cls-8" d="M195.28,596.41c-72.82,0-26.4-108.9,0-108.9,19.32,0,72.82,108.9,0,108.9Z"/>
        <path class="cls-13" d="M288.85,444.97c-72.82,0-26.4-108.9,0-108.9,19.32,0,72.82,108.9,0,108.9Z"/>
        <path class="cls-11" d="M377.99,624.5c-72.82,0-26.4-108.9,0-108.9,19.32,0,72.82,108.9,0,108.9Z"/>
      </g>
      <text class="cls-9" transform="translate(567.11 483.44)"><tspan x="0" y="0">Earth is HOT!</tspan><tspan x="0" y="86.4">Ann</tspan></text>
      <circle class="cls-2" cx="877.48" cy="461.12" r="26.66"/>
      <path class="cls-2" d="M865.32,427.64"/>
      <path class="cls-6" d="M338.51,77.54"/>
      <path class="cls-6" d="M304.85,106.07"/>
      <path class="cls-6" d="M252.98,130.24"/>
      <path class="cls-6" d="M300.88,97.07"/>
      <path class="cls-6" d="M286.99,98.77"/>
      <path class="cls-1" d="M913.04,437.08"/>
      <path class="cls-2" d="M880.6,404.2c-.51,3.48-.77,8.65,1.12,14.22,2.17,6.39,5.28,7.78,8.84,13.85,1.6,2.72,7.91,13.49,5,24.7-2.77,10.67-12.45,16.19-15.34,17.71.56-3.04,1.22-7.45,1.51-12.84.18-3.38.27-5.07,0-6.74-.99-6.02-4.68-8.36-8.23-13.85-1.22-1.88-5.51-8.89-5.69-15.74-.26-10.53,9.25-18.58,12.8-21.31Z"/>
      <path class="cls-10" d="M872.76,418.32c-.49,3.3-.73,8.2,1.07,13.49,2.06,6.06,5.01,7.38,8.39,13.14,1.51,2.58,7.5,12.8,4.75,23.44-2.62,10.12-11.81,15.36-14.56,16.8.53-2.88,1.16-7.07,1.43-12.18.17-3.2.25-4.81,0-6.39-.94-5.71-4.44-7.93-7.81-13.14-1.16-1.78-5.23-8.44-5.39-14.94-.25-9.99,8.78-17.63,12.14-20.22Z"/>
      <circle class="cls-10" cx="877.48" cy="470.71" r="17.07"/>
      <path class="cls-2" d="M871.6,431.03c.41,2.77.61,6.88-.89,11.32-1.73,5.08-4.21,6.19-7.04,11.02-1.82,3.1-6.23,11.03-3.98,19.66,1.46,5.61,5.16,9.23,5.99,10.02,2.29,2.16,4.63,3.39,6.22,4.08-.95-2.27-2.14-5.77-2.54-10.2-.21-2.28-.33-3.61,0-5.3.97-4.97,4.59-6.45,7.9-11.1.51-.72,4.37-6.39,4.52-12.53.21-8.38-7.36-14.79-10.18-16.96Z"/>
    </g>
  </g>
</svg>